<?xml version="1.0" standalone="no"?>
<!DOCTYPE svg PUBLIC "-//W3C//DTD SVG 20010904//EN"
 "http://www.w3.org/TR/2001/REC-SVG-20010904/DTD/svg10.dtd">
<svg version="1.0" xmlns="http://www.w3.org/2000/svg"
 width="1301.000000pt" height="1301.000000pt" viewBox="0 0 1301.000000 1301.000000"
 preserveAspectRatio="xMidYMid meet">

<g transform="translate(0.000000,1301.000000) scale(0.100000,-0.100000)" stroke="none">
<path d="M8575 12989 c-741 -38 -1434 -168 -1995 -375 -898 -331 -1397 -776
-1547 -1381 -16 -62 -17 -204 -20 -1680 -2 -887 -7 -1613 -11 -1613 -5 0 -105
9 -223 20 -560 51 -1005 53 -1549 4 -730 -64 -1384 -222 -1946 -469 -716 -315
-1150 -761 -1255 -1290 -21 -104 -21 -4306 0 -4410 104 -527 535 -971 1246
-1286 425 -188 869 -315 1405 -403 1281 -210 2710 -103 3761 281 890 324 1399
779 1546 1380 14 59 17 153 20 684 l4 615 112 -13 c1027 -117 2118 -33 3016
234 1073 318 1721 845 1852 1508 12 59 14 573 14 3205 0 3414 4 3177 -57 3364
-237 734 -1192 1295 -2603 1530 -537 90 -1193 125 -1770 95z m810 -999 c970
-52 1803 -271 2305 -605 172 -115 285 -237 312 -338 59 -223 -363 -542 -997
-753 -1180 -393 -2826 -391 -4005 5 -483 163 -857 398 -960 604 -38 77 -38
118 1 195 104 208 480 443 974 607 675 225 1540 329 2370 285z m-3106 -2481
c260 -123 628 -242 1007 -328 1567 -353 3532 -176 4632 418 l92 50 0 -338 c0
-227 -4 -349 -11 -372 -7 -19 -31 -62 -55 -96 -136 -192 -490 -399 -939 -549
-1180 -393 -2826 -391 -4005 5 -483 163 -857 398 -960 604 l-30 60 0 343 0
343 93 -50 c50 -28 130 -68 176 -90z m5720 -2564 c-27 -96 -142 -219 -309
-330 -735 -490 -2211 -725 -3540 -565 -150 19 -150 18 -150 52 0 60 -42 236
-81 333 -100 256 -278 481 -533 673 -60 45 -106 82 -104 82 3 0 69 -14 147
-30 448 -95 911 -146 1426 -157 986 -20 1938 130 2695 424 109 42 388 177 434
209 l21 14 3 -332 c2 -230 -1 -345 -9 -373z m-7614 45 c991 -53 1858 -286
2339 -629 166 -117 286 -270 286 -361 0 -59 -52 -149 -133 -231 -353 -357
-1181 -640 -2147 -734 -1334 -129 -2755 120 -3434 604 -166 117 -286 270 -286
361 0 59 53 151 134 232 397 399 1372 698 2466 757 217 12 561 12 775 1z
m7614 -2045 c-27 -96 -142 -219 -309 -330 -730 -487 -2142 -716 -3510 -569
-80 8 -151 17 -157 19 -10 3 -13 113 -13 503 l0 498 113 -13 c1198 -137 2470
2 3427 374 109 42 388 177 434 209 l21 14 3 -332 c2 -230 -1 -345 -9 -373z
m-10720 -436 c260 -123 628 -242 1007 -328 1567 -353 3532 -176 4632 418 l92
50 0 -343 0 -343 -30 -60 c-103 -206 -477 -441 -960 -604 -1186 -398 -2834
-398 -4020 0 -483 163 -857 398 -960 604 l-30 60 0 343 0 343 93 -50 c50 -28
130 -68 176 -90z m-9 -1995 c47 -23 137 -62 200 -87 1454 -569 3626 -569 5080
0 125 49 237 102 373 177 l87 48 0 -345 0 -344 -30 -60 c-103 -206 -477 -441
-960 -604 -1186 -398 -2834 -398 -4020 0 -483 163 -857 398 -960 604 l-30 60
0 344 0 345 88 -48 c48 -27 125 -67 172 -90z"/>
</g>
</svg>
